
**** Veronika.Decides.To.Die.2009.DVDRiP.XviD.OTIONAL-NORDIC_SUB-Zen_Bud ****

Format                           : AVI
File size                        : 706 MiB
Duration                         : 1h 38mn
Overall bit rate                 : 1 000 Kbps

Video

Codec ID/Hint                    : XviD
Duration                         : 1h 38mn
Bit rate                         : 859 Kbps
Width                            : 720 pixels
Height                           : 436 pixels
Display aspect ratio             : 2.35:1
Stream size                      : 607 MiB (86%)
Writing library                  : XviD 1.1.2 (UTC 2006-11-01)

Audio

Format                           : MPEG Audio
Codec ID/Hint                    : MP3
Duration                         : 1h 38mn
Bit rate                         : 128 Kbps
Channel(s)                       : 2 channels
Sampling rate                    : 48.0 KHz
Stream size                      : 90.4 MiB (13%)
Language                         : English

Text #1
Language                         : Swedish

Text #2
Language                         : Danish

Text #3
Language                         : Norwegian

Text #4
Language                         : Finnish

